<svg width="421" height="101" viewBox="0 0 421 101" fill="none" xmlns="http://www.w3.org/2000/svg">
<path d="M94.9142 54.5788C99.6261 54.5788 102.504 52.8479 105.129 50.1072L102.288 47.2224C100.13 49.2418 98.1514 50.4679 95.0581 50.4679C90.2383 50.4679 86.7494 46.4651 86.7494 41.5248V41.4527C86.7494 36.5124 90.2743 32.5818 95.0221 32.5818C97.9355 32.5818 100.058 33.8078 102.108 35.683L104.949 32.4015C102.54 30.0936 99.734 28.4709 95.0581 28.4709C87.4687 28.4709 82.1094 34.3488 82.1094 41.5248V41.5969C82.1094 48.8451 87.5407 54.5788 94.9142 54.5788Z" fill="white"/>
<path d="M118.627 54.5066C123.914 54.5066 127.619 51.6939 127.619 46.97V46.8979C127.619 42.7148 124.885 40.8036 119.562 39.5054C114.706 38.3515 113.555 37.486 113.555 35.5388V35.4666C113.555 33.8078 115.066 32.4736 117.656 32.4736C119.957 32.4736 122.224 33.3751 124.49 35.07L126.863 31.7163C124.31 29.6609 121.396 28.543 117.727 28.543C112.728 28.543 109.131 31.536 109.131 35.8633V35.9354C109.131 40.5872 112.152 42.1739 117.512 43.4721C122.188 44.5539 123.195 45.5275 123.195 47.3306V47.4027C123.195 49.2779 121.468 50.576 118.735 50.576C115.641 50.576 113.195 49.386 110.786 47.2945L108.124 50.4679C111.145 53.1724 114.778 54.5066 118.627 54.5066Z" fill="white"/>
<path d="M144.511 54.5788C149.223 54.5788 152.101 52.8479 154.726 50.1072L151.885 47.2224C149.727 49.2418 147.748 50.4679 144.655 50.4679C139.835 50.4679 136.346 46.4651 136.346 41.5248V41.4527C136.346 36.5124 139.871 32.5818 144.619 32.5818C147.533 32.5818 149.655 33.8078 151.705 35.683L154.546 32.4015C152.137 30.0936 149.331 28.4709 144.655 28.4709C137.066 28.4709 131.707 34.3488 131.707 41.5248V41.5969C131.707 48.8451 137.138 54.5788 144.511 54.5788Z" fill="white"/>
<path d="M181.885 54.5788C186.597 54.5788 189.474 52.8479 192.1 50.1072L189.258 47.2224C187.1 49.2418 185.122 50.4679 182.029 50.4679C177.209 50.4679 173.72 46.4651 173.72 41.5248V41.4527C173.72 36.5124 177.245 32.5818 181.993 32.5818C184.906 32.5818 187.028 33.8078 189.078 35.683L191.92 32.4015C189.51 30.0936 186.704 28.4709 182.029 28.4709C174.439 28.4709 169.08 34.3488 169.08 41.5248V41.5969C169.08 48.8451 174.511 54.5788 181.885 54.5788Z" fill="white"/>
<path d="M204.958 54.5788C210.821 54.5788 215.137 50.0712 215.137 44.6621V44.59C215.137 39.1448 210.857 34.7094 205.03 34.7094C199.203 34.7094 194.887 39.2169 194.887 44.6621V44.7342C194.887 50.1433 199.167 54.5788 204.958 54.5788ZM205.03 50.7563C201.649 50.7563 199.239 47.9797 199.239 44.6621V44.59C199.239 41.2724 201.469 38.5318 204.958 38.5318C208.375 38.5318 210.785 41.3085 210.785 44.6621V44.7342C210.785 48.0157 208.555 50.7563 205.03 50.7563Z" fill="white"/>
<path d="M219.534 54.146H223.922V43.4C223.922 40.4791 225.576 38.676 227.986 38.676C230.396 38.676 231.835 40.3348 231.835 43.2918V54.146H236.187V43.4C236.187 40.3348 237.877 38.676 240.251 38.676C242.697 38.676 244.1 40.2988 244.1 43.3279V54.146H248.452V41.9936C248.452 37.3418 245.934 34.7094 241.798 34.7094C238.921 34.7094 236.906 36.0436 235.396 38.063C234.389 36.0436 232.446 34.7094 229.713 34.7094C226.799 34.7094 225.145 36.296 223.922 37.9909V35.106H219.534V54.146Z" fill="white"/>
<path d="M253.675 54.146H258.064V43.4C258.064 40.4791 259.718 38.676 262.128 38.676C264.538 38.676 265.977 40.3348 265.977 43.2918V54.146H270.329V43.4C270.329 40.3348 272.019 38.676 274.393 38.676C276.839 38.676 278.242 40.2988 278.242 43.3279V54.146H282.594V41.9936C282.594 37.3418 280.076 34.7094 275.94 34.7094C273.062 34.7094 271.048 36.0436 269.538 38.063C268.53 36.0436 266.588 34.7094 263.855 34.7094C260.941 34.7094 259.287 36.296 258.064 37.9909V35.106H253.675V54.146Z" fill="white"/>
<path d="M296.881 54.5788C302.744 54.5788 307.06 50.0712 307.06 44.6621V44.59C307.06 39.1448 302.78 34.7094 296.953 34.7094C291.126 34.7094 286.81 39.2169 286.81 44.6621V44.7342C286.81 50.1433 291.09 54.5788 296.881 54.5788ZM296.953 50.7563C293.572 50.7563 291.162 47.9797 291.162 44.6621V44.59C291.162 41.2724 293.392 38.5318 296.881 38.5318C300.298 38.5318 302.708 41.3085 302.708 44.6621V44.7342C302.708 48.0157 300.478 50.7563 296.953 50.7563Z" fill="white"/>
<path d="M319.334 54.5427C322.427 54.5427 324.405 52.956 325.808 50.9727V54.146H330.16V27.8218H325.808V38.063C324.441 36.26 322.463 34.7094 319.334 34.7094C314.802 34.7094 310.522 38.2794 310.522 44.59V44.6621C310.522 50.9727 314.874 54.5427 319.334 54.5427ZM320.377 50.7563C317.428 50.7563 314.91 48.3403 314.91 44.6621V44.59C314.91 40.8397 317.392 38.4957 320.377 38.4957C323.29 38.4957 325.88 40.9118 325.88 44.59V44.6621C325.88 48.3042 323.29 50.7563 320.377 50.7563Z" fill="white"/>
<path d="M335.696 32.1851H340.372V28.0381H335.696V32.1851ZM335.84 54.146H340.228V35.106H335.84V54.146Z" fill="white"/>
<path d="M352.282 54.4706C353.937 54.4706 355.124 54.11 356.203 53.4969V49.9269C355.339 50.3597 354.476 50.576 353.505 50.576C352.03 50.576 351.167 49.8909 351.167 48.196V38.8563H356.275V35.106H351.167V29.8772H346.815V35.106H344.405V38.8563H346.815V48.8812C346.815 53.0642 349.081 54.4706 352.282 54.4706Z" fill="white"/>
<path d="M360.775 32.1851H365.451V28.0381H360.775V32.1851ZM360.919 54.146H365.307V35.106H360.919V54.146Z" fill="white"/>
<path d="M379.7 54.5788C383.188 54.5788 385.67 53.1724 387.469 51.0088L384.915 48.7369C383.404 50.2154 381.894 51.0088 379.771 51.0088C376.966 51.0088 374.772 49.2779 374.304 46.1766H388.26C388.296 45.7439 388.332 45.3472 388.332 44.9506C388.332 39.4694 385.275 34.7094 379.232 34.7094C373.801 34.7094 369.952 39.1809 369.952 44.626V44.6982C369.952 50.576 374.196 54.5788 379.7 54.5788ZM374.268 43.2918C374.664 40.3348 376.534 38.2794 379.196 38.2794C382.073 38.2794 383.728 40.4791 384.016 43.2918H374.268Z" fill="white"/>
<path d="M399.213 54.5066C403.169 54.5066 406.263 52.5233 406.263 48.5206V48.4485C406.263 45.0227 403.134 43.7606 400.364 42.8951C398.134 42.1739 396.084 41.5969 396.084 40.1906V40.1185C396.084 39.0727 397.055 38.2433 398.745 38.2433C400.328 38.2433 402.27 38.9285 404.105 40.0463L405.831 36.9451C403.817 35.6109 401.227 34.7815 398.853 34.7815C395.077 34.7815 392.091 36.9812 392.091 40.6233V40.6954C392.091 44.3015 395.22 45.4554 398.026 46.2488C400.256 46.9339 402.27 47.4388 402.27 48.9172V48.9894C402.27 50.2515 401.191 51.0448 399.321 51.0448C397.379 51.0448 395.185 50.2515 393.098 48.7009L391.156 51.6579C393.53 53.5691 396.515 54.5066 399.213 54.5066Z" fill="white"/>
<path d="M9.53467 35.0121C9.53467 36.1389 9.65253 37.2407 9.87333 38.3026C9.87665 38.3192 9.87997 38.3309 9.88329 38.3442C10.5639 41.2086 11.9817 43.835 14.1531 45.9438C14.2577 46.0437 14.3607 46.1385 14.4603 46.2351C17.4419 49.0645 21.4693 50.3128 25.5333 49.91C27.479 49.7169 29.3433 49.1294 31.1147 48.3122C32.0211 47.8944 32.9026 47.4201 33.7526 46.8941C34.5976 46.3715 35.3879 45.7757 36.2063 45.2131C37.5377 44.2977 38.9156 43.4289 40.4164 42.8197C42.4882 41.9809 44.8356 41.6414 47.0353 42.119C48.7851 42.5002 50.4137 43.3806 51.697 44.6323C52.9703 45.8739 53.8834 47.4717 54.2967 49.206C54.4661 49.9167 54.5491 50.649 54.5491 51.3797C54.5491 56.6141 50.2576 60.8583 44.9635 60.8583C43.2801 60.8583 41.6117 60.4556 40.0628 59.8181C38.5172 59.184 37.2107 58.2336 35.8029 57.3731C34.918 56.8322 34.0183 56.3162 33.0952 55.8402C32.1689 55.3592 31.2209 54.9182 30.2464 54.537C29.682 54.3156 29.1009 54.1043 28.5133 53.9228C28.0766 53.788 27.6351 53.6699 27.1885 53.5767C26.6705 53.4685 26.1409 53.4585 25.618 53.4868C27.0009 54.3423 28.0949 55.5356 29.2006 56.7207C29.3699 56.9004 29.5392 57.0819 29.7119 57.2616C32.0145 59.5668 34.0481 62.1399 36.7973 63.9458C39.1829 65.5086 41.9985 66.6321 44.8855 66.6321C48.8582 66.6903 52.8192 65.0892 55.6464 62.3463C57.9706 60.0894 59.4298 57.24 60.0458 54.1409C60.1902 53.2837 60.2632 52.4033 60.2632 51.5028C60.2632 50.376 60.1454 49.2742 59.9246 48.2123C59.9212 48.1957 59.9179 48.1841 59.9146 48.1707C59.234 45.3063 57.8162 42.6816 55.6448 40.5711C55.5402 40.4713 55.4372 40.3764 55.3376 40.2799C52.356 37.4504 48.3286 36.2021 44.2646 36.6049C42.3803 36.7913 40.5558 37.3439 38.8359 38.1295C37.986 38.5173 37.1625 38.9584 36.3557 39.4294C35.4659 39.9487 34.6441 40.5728 33.7958 41.157C32.3946 42.1207 30.9653 43.0527 29.3815 43.6935C27.3097 44.5357 24.9622 44.8752 22.7626 44.3942C21.0128 44.0131 19.3842 43.136 18.1009 41.881C16.8276 40.6394 15.9145 39.0416 15.5012 37.3073C15.3318 36.5966 15.2488 35.8676 15.2488 35.1336C15.2488 29.8991 19.5403 25.6549 24.8344 25.6549C26.5178 25.6549 28.1862 26.061 29.7351 26.6985C31.2807 27.3326 32.5872 28.2797 33.995 29.1401C34.8799 29.6811 35.7796 30.197 36.7027 30.6731C37.629 31.1541 38.577 31.5951 39.5515 31.9763C40.1159 32.1976 40.697 32.409 41.2846 32.5904C41.7213 32.7252 42.1628 32.8434 42.6094 32.9366C43.1274 33.0448 43.657 33.0548 44.1799 33.0265C42.797 32.171 41.7013 30.9776 40.5973 29.7926C40.428 29.6128 40.2587 29.4314 40.086 29.2517C37.7834 26.9465 35.7498 24.3734 33.0006 22.5675C30.615 21.0046 27.7994 19.8812 24.9124 19.8812C20.9398 19.8229 16.9787 21.4241 14.1515 24.167C11.8273 26.4239 10.3681 29.2733 9.75214 32.3707C9.60937 33.2312 9.53467 34.1117 9.53467 35.0121Z" fill="white"/>
<path d="M36.1581 35.4616C35.5389 35.197 34.908 34.9007 34.2755 34.5662C33.4687 34.1467 32.7532 33.6541 32.0775 33.1448C31.777 32.9201 31.4849 32.6921 31.1943 32.4657C30.5004 31.9248 29.8463 31.4155 29.1706 31.006C27.8458 30.2138 26.3866 29.796 24.939 29.796C24.7846 29.796 24.6252 29.801 24.4642 29.8093C24.0425 29.8343 23.5727 29.9558 23.068 30.1622C22.3541 30.4584 21.7017 30.9145 21.1887 31.4804C20.772 31.9381 20.4384 32.4724 20.2026 33.0632C19.9503 33.694 19.8141 34.3947 19.8141 35.0821C19.8141 35.7695 19.9503 36.4702 20.1993 37.096C20.2889 37.314 20.4002 37.5437 20.528 37.7701C20.7123 38.0963 20.9364 38.4059 21.1937 38.6888C21.2452 38.7487 21.2983 38.8053 21.3381 38.8436L21.3946 38.8952L21.4195 38.9268L21.5872 39.0816C21.9125 39.3796 22.2545 39.6508 22.5168 39.8206C22.7791 39.9887 23.0514 40.1302 23.3303 40.235C23.8831 40.4514 24.4725 40.5612 25.095 40.5612C26.3152 40.5612 27.5703 40.1318 28.9366 39.2431C29.2902 39.0117 29.6421 38.772 29.9941 38.5274C30.6515 38.0713 31.3321 37.6053 32.0692 37.1776C32.1971 37.1027 32.3265 37.0311 32.4577 36.9595C33.6165 36.3354 34.8815 35.8261 36.1581 35.4616Z" fill="#793690"/>
<path d="M33.6348 51.0501C34.254 51.3148 34.8848 51.611 35.5173 51.9456C36.3242 52.365 37.0397 52.8576 37.7154 53.3669C38.0158 53.5916 38.308 53.8196 38.5985 54.046C39.2925 54.5869 39.9466 55.0962 40.6222 55.5057C41.947 56.2979 43.4063 56.7157 44.8539 56.7157C45.0083 56.7157 45.1677 56.7107 45.3287 56.7024C45.7504 56.6774 46.2202 56.5559 46.7249 56.3495C47.4387 56.0533 48.0912 55.5972 48.6041 55.0313C49.0208 54.5736 49.3545 54.0394 49.5903 53.4485C49.8426 52.8177 49.9787 52.117 49.9787 51.4296C49.9787 50.7422 49.8426 50.0415 49.5936 49.4157C49.5039 49.1977 49.3927 48.968 49.2649 48.7416C49.0806 48.4154 48.8565 48.1058 48.5992 47.8229C48.5477 47.763 48.4946 47.7064 48.4547 47.6681L48.3983 47.6165L48.3734 47.5849L48.2057 47.4301C47.8803 47.1322 47.5383 46.8609 47.276 46.6911C47.0137 46.523 46.7415 46.3815 46.4626 46.2767C45.9098 46.0603 45.3204 45.9504 44.6979 45.9504C43.4777 45.9504 42.2226 46.3799 40.8563 47.2686C40.5027 47.5 40.1508 47.7397 39.7988 47.9843C39.1414 48.4404 38.4608 48.9064 37.7237 49.3341C37.5958 49.409 37.4663 49.4806 37.3352 49.5522C36.1781 50.178 34.9114 50.6873 33.6348 51.0501Z" fill="#793690"/>
<path d="M303.468 74.9586H304.536L305.147 73.5198H307.953L308.555 74.9586H309.657L307.046 68.9566H306.079L303.468 74.9586ZM305.528 72.5919L306.546 70.2081L307.571 72.5919H305.528Z" fill="white"/>
<path d="M314.065 74.9586H316.277C318.143 74.9586 319.431 73.6561 319.431 71.9789V71.9619C319.431 70.2847 318.143 68.9991 316.277 68.9991H314.065V74.9586ZM316.277 69.9527C317.524 69.9527 318.338 70.8125 318.338 71.9789V71.9959C318.338 73.1623 317.524 74.0051 316.277 74.0051H315.107V69.9527H316.277Z" fill="white"/>
<path d="M321.18 74.9586H322.223V68.9991H321.18V74.9586Z" fill="white"/>
<path d="M326.185 75.0012H327.118L329.577 68.9991H328.449L326.669 73.5794L324.88 68.9991H323.727L326.185 75.0012Z" fill="white"/>
<path d="M331.077 74.9586H332.12V68.9991H331.077V74.9586Z" fill="white"/>
<path d="M336.21 75.0438C337.456 75.0438 338.329 74.3797 338.329 73.2644V73.2474C338.329 72.2598 337.685 71.8086 336.43 71.5021C335.286 71.2297 335.014 71.0254 335.014 70.5656V70.5486C335.014 70.157 335.371 69.842 335.981 69.842C336.524 69.842 337.058 70.0548 337.592 70.455L338.151 69.6632C337.549 69.1779 336.863 68.914 335.998 68.914C334.819 68.914 333.972 69.6206 333.972 70.6423V70.6593C333.972 71.7575 334.684 72.1321 335.947 72.4386C337.049 72.694 337.287 72.9239 337.287 73.3496V73.3666C337.287 73.8093 336.88 74.1158 336.235 74.1158C335.506 74.1158 334.93 73.8348 334.362 73.3411L333.734 74.0902C334.446 74.7288 335.303 75.0438 336.21 75.0438Z" fill="white"/>
<path d="M340.039 74.9586H341.082V68.9991H340.039V74.9586Z" fill="white"/>
<path d="M345.926 75.0608C347.749 75.0608 349.038 73.6561 349.038 71.9789V71.9619C349.038 70.2847 347.766 68.897 345.943 68.897C344.12 68.897 342.832 70.3017 342.832 71.9789V71.9959C342.832 73.6731 344.103 75.0608 345.926 75.0608ZM345.943 74.0902C344.765 74.0902 343.925 73.1367 343.925 71.9789V71.9619C343.925 70.804 344.748 69.8675 345.926 69.8675C347.105 69.8675 347.944 70.821 347.944 71.9789V71.9959C347.944 73.1538 347.122 74.0902 345.943 74.0902Z" fill="white"/>
<path d="M350.722 74.9586H351.748V70.7189L355.02 74.9586H355.894V68.9991H354.868V73.1197L351.688 68.9991H350.722V74.9586Z" fill="white"/>
<path d="M363.641 75.0608C365.464 75.0608 366.753 73.6561 366.753 71.9789V71.9619C366.753 70.2847 365.481 68.897 363.658 68.897C361.836 68.897 360.547 70.3017 360.547 71.9789V71.9959C360.547 73.6731 361.819 75.0608 363.641 75.0608ZM363.658 74.0902C362.48 74.0902 361.641 73.1367 361.641 71.9789V71.9619C361.641 70.804 362.463 69.8675 363.641 69.8675C364.82 69.8675 365.659 70.821 365.659 71.9789V71.9959C365.659 73.1538 364.837 74.0902 363.658 74.0902Z" fill="white"/>
<path d="M368.437 74.9586H369.48V72.5323H372.473V71.5787H369.48V69.9527H372.854V68.9991H368.437V74.9586Z" fill="white"/>
<path d="M320.874 80.9072L313.04 92.79L305.203 80.9072H303.837V101H305.232V83.5475L312.955 95.115H313.067L320.79 83.5475V101H322.241V80.9072H320.874Z" fill="white"/>
<path d="M338.804 94.0207L333.673 82.3967L328.515 94.0207H338.804ZM333.005 80.7598H334.399L343.489 100.997H341.901L339.419 95.3707H327.901L325.421 100.997H323.915L333.005 80.7598Z" fill="white"/>
<path d="M353.612 91.3225C356.875 91.3225 359.302 89.629 359.302 86.73V86.6735C359.302 83.9756 357.237 82.2811 353.697 82.2811H347.032V91.3225H353.612ZM345.582 80.9028H353.781C356.178 80.9028 358.101 81.6778 359.274 82.8843C360.193 83.8301 360.753 85.181 360.753 86.6159V86.6735C360.753 90.0301 358.325 91.955 355.035 92.4138L361.476 100.996H359.635L353.418 92.6724H347.032V100.996H345.582V80.9028Z" fill="white"/>
<path d="M363.36 80.9028H377.247V82.2801H364.81V90.1736H375.99V91.5529H364.81V99.6172H377.385V100.996H363.36V80.9028Z" fill="white"/>
<path d="M396.046 80.9028L388.544 90.7476L396.325 100.996H394.596L387.652 91.7236L380.737 100.996H379.037L386.788 90.7476L379.315 80.9028H381.044L387.708 89.7725L394.344 80.9028H396.046Z" fill="white"/>
<path d="M404.53 68.8366L404.815 68.5426L386.772 71.4001L399.243 74.2846L399.249 74.2786L402.052 87.0848L404.829 68.5314L404.53 68.8366Z" fill="#7F3E98"/>
</svg>
